M48
; DRILL file {KiCad (6.0.7-1)-1} date Thursday, 13 October 2022 at 17:45:32
; FORMAT={-:-/ absolute / inch / decimal}
; #@! TF.CreationDate,2022-10-13T17:45:32+01:00
; #@! TF.GenerationSoftware,Kicad,Pcbnew,(6.0.7-1)-1
; #@! TF.FileFunction,Plated,1,2,PTH
FMAT,2
INCH
; #@! TA.AperFunction,Plated,PTH,ViaDrill
T1C0.0157
; #@! TA.AperFunction,Plated,PTH,ComponentDrill
T2C0.0362
; #@! TA.AperFunction,Plated,PTH,ComponentDrill
T3C0.0374
; #@! TA.AperFunction,Plated,PTH,ComponentDrill
T4C0.0394
; #@! TA.AperFunction,Plated,PTH,ComponentDrill
T5C0.0906
%
G90
G05
T1
X3.54Y-2.88
X3.55Y-2.73
X3.61Y-2.63
X3.78Y-2.64
X3.81Y-3.09
X3.83Y-2.52
X3.92Y-2.56
X4.02Y-2.08
X4.02Y-2.46
X4.15Y-2.97
X4.28Y-2.7
X4.32Y-2.87
X4.32Y-2.97
X4.38Y-2.41
X4.38Y-2.62
X4.47Y-2.24
X4.545Y-2.545
X4.6Y-2.15
X4.78Y-2.8
X4.79Y-2.42
X4.8Y-2.38
X4.88Y-2.61
X4.88Y-2.75
X5.0876Y-2.6424
T2
X3.235Y-1.98
X3.235Y-2.0784
X3.235Y-2.1572
X3.235Y-2.2556
T3
X3.2363Y-2.7716
X3.2363Y-2.87
X3.315Y-2.7716
X3.315Y-2.87
T4
X3.44Y-1.52
X3.54Y-1.52
X3.6172Y-1.86
X3.6172Y-2.06
X3.6172Y-2.16
X3.6172Y-2.26
X3.64Y-1.52
X3.74Y-1.52
X3.8Y-3.42
X3.8172Y-1.86
X3.8172Y-2.06
X3.8172Y-2.16
X3.8172Y-2.26
X3.84Y-1.52
X3.9Y-3.42
X3.94Y-1.52
X4.0Y-3.42
X4.04Y-1.52
X4.1Y-3.42
X4.14Y-1.52
X4.17Y-1.88
X4.17Y-1.98
X4.2Y-3.42
X4.24Y-1.52
X4.3Y-3.42
X4.34Y-1.52
X4.4Y-3.42
X4.5Y-1.52
X4.5Y-3.42
X4.6Y-1.52
X4.6294Y-2.97
X4.7Y-1.52
X4.7Y-3.42
X4.7294Y-2.97
X4.8Y-1.52
X4.8Y-3.42
X4.8294Y-2.97
X4.9Y-1.52
X4.9Y-3.42
X5.0Y-1.52
X5.0Y-3.42
X5.02Y-2.97
X5.1Y-1.52
X5.1Y-3.42
X5.12Y-2.97
X5.2Y-1.52
X5.2Y-3.42
T5
X3.1237Y-2.5846
X3.1237Y-3.057
X3.1283Y-1.8591
X3.1283Y-2.3765
T0
M30
