%TF.GenerationSoftware,KiCad,Pcbnew,(6.0.7-1)-1*%
%TF.CreationDate,2022-10-13T17:45:23+01:00*%
%TF.ProjectId,JVS-IO,4a56532d-494f-42e6-9b69-6361645f7063,1*%
%TF.SameCoordinates,Original*%
%TF.FileFunction,Soldermask,Bot*%
%TF.FilePolarity,Negative*%
%FSLAX46Y46*%
G04 Gerber Fmt 4.6, Leading zero omitted, Abs format (unit mm)*
G04 Created by KiCad (PCBNEW (6.0.7-1)-1) date 2022-10-13 17:45:23*
%MOMM*%
%LPD*%
G01*
G04 APERTURE LIST*
%ADD10R,1.524000X1.524000*%
%ADD11C,1.524000*%
%ADD12C,3.500000*%
%ADD13R,1.700000X1.700000*%
%ADD14O,1.700000X1.700000*%
%ADD15C,3.200000*%
%ADD16R,1.600000X1.600000*%
%ADD17C,1.600000*%
%ADD18C,4.000000*%
%ADD19R,2.000000X2.000000*%
%ADD20C,2.000000*%
G04 APERTURE END LIST*
D10*
%TO.C,JVS-A1*%
X82169000Y-50292000D03*
D11*
X82169000Y-52792000D03*
X82169000Y-54792000D03*
X82169000Y-57292000D03*
D12*
X79459000Y-60362000D03*
X79459000Y-47222000D03*
%TD*%
D13*
%TO.C,REF\u002A\u002A*%
X119380000Y-86868000D03*
D14*
X121920000Y-86868000D03*
X124460000Y-86868000D03*
X127000000Y-86868000D03*
X129540000Y-86868000D03*
X132080000Y-86868000D03*
%TD*%
D15*
%TO.C,REF\u002A\u002A*%
X82550000Y-86868000D03*
%TD*%
%TO.C,REF\u002A\u002A*%
X134620000Y-81788000D03*
%TD*%
%TO.C,REF\u002A\u002A*%
X134620000Y-53848000D03*
%TD*%
%TO.C,REF\u002A\u002A*%
X83820000Y-38608000D03*
%TD*%
D16*
%TO.C,JVS-B1*%
X84201000Y-72898000D03*
D17*
X84201000Y-70398000D03*
X82201000Y-70398000D03*
X82201000Y-72898000D03*
D18*
X79341000Y-77648000D03*
X79341000Y-65648000D03*
%TD*%
D13*
%TO.C,J1*%
X132080000Y-38608000D03*
D14*
X129540000Y-38608000D03*
X127000000Y-38608000D03*
X124460000Y-38608000D03*
X121920000Y-38608000D03*
X119380000Y-38608000D03*
X116840000Y-38608000D03*
X114300000Y-38608000D03*
%TD*%
D13*
%TO.C,PPWR1*%
X114300000Y-86868000D03*
D14*
X111760000Y-86868000D03*
X109220000Y-86868000D03*
X106680000Y-86868000D03*
X104140000Y-86868000D03*
X101600000Y-86868000D03*
X99060000Y-86868000D03*
X96520000Y-86868000D03*
%TD*%
D13*
%TO.C,Pdig2*%
X110236000Y-38608000D03*
D14*
X107696000Y-38608000D03*
X105156000Y-38608000D03*
X102616000Y-38608000D03*
X100076000Y-38608000D03*
X97536000Y-38608000D03*
X94996000Y-38608000D03*
X92456000Y-38608000D03*
X89916000Y-38608000D03*
X87376000Y-38608000D03*
%TD*%
D13*
%TO.C,J3*%
X130048000Y-75438000D03*
D14*
X127508000Y-75438000D03*
%TD*%
D13*
%TO.C,J2*%
X122667000Y-75438000D03*
D14*
X120127000Y-75438000D03*
X117587000Y-75438000D03*
%TD*%
D19*
%TO.C,K1*%
X91876010Y-47244000D03*
D20*
X91876010Y-52324000D03*
X91876010Y-54864000D03*
X91876010Y-57404000D03*
X96956010Y-57404000D03*
X96956010Y-54864000D03*
X96956010Y-52324000D03*
X96956010Y-47244000D03*
%TD*%
D13*
%TO.C,J4*%
X105918000Y-50292000D03*
D14*
X105918000Y-47752000D03*
%TD*%
M02*
