%TF.GenerationSoftware,KiCad,Pcbnew,(6.0.7-1)-1*%
%TF.CreationDate,2022-10-13T17:45:22+01:00*%
%TF.ProjectId,JVS-IO,4a56532d-494f-42e6-9b69-6361645f7063,1*%
%TF.SameCoordinates,Original*%
%TF.FileFunction,Paste,Top*%
%TF.FilePolarity,Positive*%
%FSLAX46Y46*%
G04 Gerber Fmt 4.6, Leading zero omitted, Abs format (unit mm)*
G04 Created by KiCad (PCBNEW (6.0.7-1)-1) date 2022-10-13 17:45:22*
%MOMM*%
%LPD*%
G01*
G04 APERTURE LIST*
G04 Aperture macros list*
%AMRoundRect*
0 Rectangle with rounded corners*
0 $1 Rounding radius*
0 $2 $3 $4 $5 $6 $7 $8 $9 X,Y pos of 4 corners*
0 Add a 4 corners polygon primitive as box body*
4,1,4,$2,$3,$4,$5,$6,$7,$8,$9,$2,$3,0*
0 Add four circle primitives for the rounded corners*
1,1,$1+$1,$2,$3*
1,1,$1+$1,$4,$5*
1,1,$1+$1,$6,$7*
1,1,$1+$1,$8,$9*
0 Add four rect primitives between the rounded corners*
20,1,$1+$1,$2,$3,$4,$5,0*
20,1,$1+$1,$4,$5,$6,$7,0*
20,1,$1+$1,$6,$7,$8,$9,0*
20,1,$1+$1,$8,$9,$2,$3,0*%
G04 Aperture macros list end*
%ADD10RoundRect,0.250000X-0.625000X0.312500X-0.625000X-0.312500X0.625000X-0.312500X0.625000X0.312500X0*%
%ADD11RoundRect,0.150000X-0.587500X-0.150000X0.587500X-0.150000X0.587500X0.150000X-0.587500X0.150000X0*%
%ADD12RoundRect,0.150000X0.825000X0.150000X-0.825000X0.150000X-0.825000X-0.150000X0.825000X-0.150000X0*%
%ADD13RoundRect,0.250000X0.312500X0.625000X-0.312500X0.625000X-0.312500X-0.625000X0.312500X-0.625000X0*%
%ADD14RoundRect,0.250000X0.325000X0.650000X-0.325000X0.650000X-0.325000X-0.650000X0.325000X-0.650000X0*%
%ADD15R,0.900000X0.800000*%
%ADD16RoundRect,0.250000X-0.375000X-0.625000X0.375000X-0.625000X0.375000X0.625000X-0.375000X0.625000X0*%
%ADD17RoundRect,0.250000X0.625000X-0.312500X0.625000X0.312500X-0.625000X0.312500X-0.625000X-0.312500X0*%
%ADD18RoundRect,0.250000X-0.312500X-0.625000X0.312500X-0.625000X0.312500X0.625000X-0.312500X0.625000X0*%
%ADD19RoundRect,0.150000X-0.825000X-0.150000X0.825000X-0.150000X0.825000X0.150000X-0.825000X0.150000X0*%
G04 APERTURE END LIST*
D10*
%TO.C,R19*%
X94488000Y-62545500D03*
X94488000Y-65470500D03*
%TD*%
D11*
%TO.C,D5*%
X87708500Y-79060000D03*
X87708500Y-80960000D03*
X89583500Y-80010000D03*
%TD*%
%TO.C,D4*%
X89583500Y-76454000D03*
X87708500Y-77404000D03*
X87708500Y-75504000D03*
%TD*%
D12*
%TO.C,U1*%
X96963000Y-73152000D03*
X96963000Y-71882000D03*
X96963000Y-70612000D03*
X96963000Y-69342000D03*
X92013000Y-69342000D03*
X92013000Y-70612000D03*
X92013000Y-71882000D03*
X92013000Y-73152000D03*
%TD*%
D13*
%TO.C,R8*%
X104703010Y-66548000D03*
X101778010Y-66548000D03*
%TD*%
%TO.C,R7*%
X104703010Y-68961000D03*
X101778010Y-68961000D03*
%TD*%
%TO.C,R6*%
X104703010Y-71374000D03*
X101778010Y-71374000D03*
%TD*%
%TO.C,R5*%
X104703010Y-73787000D03*
X101778010Y-73787000D03*
%TD*%
D14*
%TO.C,C1*%
X98249000Y-75819000D03*
X95299000Y-75819000D03*
%TD*%
%TO.C,C2*%
X104726000Y-64135000D03*
X101776000Y-64135000D03*
%TD*%
D15*
%TO.C,Q1*%
X91456000Y-75504000D03*
X91456000Y-77404000D03*
X93456000Y-76454000D03*
%TD*%
D13*
%TO.C,R9*%
X100137500Y-78486000D03*
X103062500Y-78486000D03*
%TD*%
%TO.C,R10*%
X98236500Y-78486000D03*
X95311500Y-78486000D03*
%TD*%
D11*
%TO.C,Q4*%
X100082510Y-49342000D03*
X100082510Y-51242000D03*
X101957510Y-50292000D03*
%TD*%
D16*
%TO.C,D3*%
X107058000Y-56984000D03*
X109858000Y-56984000D03*
%TD*%
%TO.C,D1*%
X93137510Y-43799500D03*
X95937510Y-43799500D03*
%TD*%
D13*
%TO.C,R2*%
X119572500Y-62738000D03*
X116647500Y-62738000D03*
%TD*%
D17*
%TO.C,R20*%
X97282000Y-65470500D03*
X97282000Y-62545500D03*
%TD*%
D13*
%TO.C,R3*%
X111190500Y-70358000D03*
X108265500Y-70358000D03*
%TD*%
%TO.C,R15*%
X129224500Y-69342000D03*
X126299500Y-69342000D03*
%TD*%
D18*
%TO.C,R11*%
X116647500Y-70358000D03*
X119572500Y-70358000D03*
%TD*%
D10*
%TO.C,R18*%
X91622010Y-65470500D03*
X91622010Y-62545500D03*
%TD*%
D13*
%TO.C,R16*%
X129224500Y-64770000D03*
X126299500Y-64770000D03*
%TD*%
%TO.C,R22*%
X115000500Y-56896000D03*
X112075500Y-56896000D03*
%TD*%
D18*
%TO.C,R17*%
X99811510Y-47244000D03*
X102736510Y-47244000D03*
%TD*%
D13*
%TO.C,R13*%
X119572500Y-67818000D03*
X116647500Y-67818000D03*
%TD*%
D18*
%TO.C,R12*%
X108265500Y-77978000D03*
X111190500Y-77978000D03*
%TD*%
%TO.C,R4*%
X108265500Y-72898000D03*
X111190500Y-72898000D03*
%TD*%
D11*
%TO.C,Q2*%
X121998500Y-67818000D03*
X121998500Y-69718000D03*
X123873500Y-68768000D03*
%TD*%
D16*
%TO.C,D2*%
X107058000Y-54610000D03*
X109858000Y-54610000D03*
%TD*%
D19*
%TO.C,U2*%
X108777000Y-63627000D03*
X108777000Y-64897000D03*
X108777000Y-66167000D03*
X108777000Y-67437000D03*
X113727000Y-67437000D03*
X113727000Y-66167000D03*
X113727000Y-64897000D03*
X113727000Y-63627000D03*
%TD*%
D13*
%TO.C,R1*%
X111190500Y-75438000D03*
X108265500Y-75438000D03*
%TD*%
D14*
%TO.C,C3*%
X112727000Y-61214000D03*
X109777000Y-61214000D03*
%TD*%
D13*
%TO.C,R14*%
X119572500Y-65278000D03*
X116647500Y-65278000D03*
%TD*%
D11*
%TO.C,Q3*%
X121998500Y-64328000D03*
X121998500Y-66228000D03*
X123873500Y-65278000D03*
%TD*%
D13*
%TO.C,R21*%
X115000500Y-54610000D03*
X112075500Y-54610000D03*
%TD*%
M02*
